# xmcd CD database file
#
# Track frame offsets:
#        150
#        21138
#        43868
#        73972
#        99120
#        124967
#        144496
#        165512
#        182492
#        205093
#        220556
#        242943
#        262080
#        279136
#        305925
#        319186
#
# Disc length: 4584 seconds
#
# Revision: 0
# Processed by: cddbd v1.5.2PL0 Copyright (c) Steve Scherf et al.
# Submitted via: CUERipper 2.1.5
#
DISCID=ec11e610
DTITLE=Various Artist - The New Tulsa Sound - Vol 2
DYEAR=2012
DGENRE=
TTITLE0=Them Tulsa Boys
TTITLE1=Easy People
TTITLE2=Town in Oklahoma
TTITLE3=Agnes and Myrtle
TTITLE4=Big Dream
TTITLE5=Nemesis
TTITLE6=Crying Tree
TTITLE7=Dying of Thirst
TTITLE8=The Ocean
TTITLE9=The Wicked Dance
TTITLE10=Okie Locate
TTITLE11=Dark Dirt Road
TTITLE12=Heat
TTITLE13=Working
TTITLE14=Busted
TTITLE15=Love is Life
EXTD=
EXTT0=
EXTT1=
EXTT2=
EXTT3=
EXTT4=
EXTT5=
EXTT6=
EXTT7=
EXTT8=
EXTT9=
EXTT10=
EXTT11=
EXTT12=
EXTT13=
EXTT14=
EXTT15=
PLAYORDER=
